<mxfile host="app.diagrams.net" modified="2023-12-27T11:17:11.215Z" agent="Mozilla/5.0 (Windows NT 10.0; Win64; x64) AppleWebKit/537.36 (KHTML, like Gecko) Chrome/120.0.0.0 Safari/537.36" etag="NlcO65q7VOHbzqV6zRVA" version="22.1.11" type="device">
  <diagram id="prtHgNgQTEPvFCAcTncT" name="Page-1">
    <mxGraphModel dx="428" dy="648" grid="1" gridSize="10" guides="1" tooltips="1" connect="1" arrows="1" fold="1" page="1" pageScale="1" pageWidth="827" pageHeight="1169" math="0" shadow="0">
      <root>
        <mxCell id="0" />
        <mxCell id="1" parent="0" />
        <mxCell id="yrGtAyt5l6_F0EDYC7tG-12" value="" style="shape=cube;whiteSpace=wrap;html=1;boundedLbl=1;backgroundOutline=1;darkOpacity=0.05;darkOpacity2=0.1;size=10;rotation=0;fillColor=#fff2cc;strokeColor=#d6b656;" vertex="1" parent="1">
          <mxGeometry x="80" y="120" width="170" height="160" as="geometry" />
        </mxCell>
        <mxCell id="yrGtAyt5l6_F0EDYC7tG-13" value="&lt;p style=&quot;line-height: 110%; font-size: 11px;&quot;&gt;&lt;font style=&quot;font-size: 11px;&quot;&gt;&amp;lt;&amp;lt;device&amp;gt;&amp;gt;&lt;br style=&quot;border-color: var(--border-color); font-weight: 400;&quot;&gt;&lt;span style=&quot;font-weight: 400;&quot;&gt;ComputerDevice&lt;/span&gt;&lt;/font&gt;&lt;/p&gt;" style="text;strokeColor=none;fillColor=none;html=1;fontSize=24;fontStyle=1;verticalAlign=middle;align=center;" vertex="1" parent="1">
          <mxGeometry x="128.75" y="120" width="72.5" height="60" as="geometry" />
        </mxCell>
        <mxCell id="yrGtAyt5l6_F0EDYC7tG-16" value="" style="shape=cube;whiteSpace=wrap;html=1;boundedLbl=1;backgroundOutline=1;darkOpacity=0.05;darkOpacity2=0.1;size=10;rotation=0;" vertex="1" parent="1">
          <mxGeometry x="95" y="180" width="145" height="90" as="geometry" />
        </mxCell>
        <mxCell id="yrGtAyt5l6_F0EDYC7tG-17" value="&lt;p style=&quot;line-height: 110%; font-size: 9px;&quot;&gt;&lt;font style=&quot;font-size: 9px;&quot;&gt;&amp;lt;&amp;lt;OS&amp;gt;&amp;gt;&lt;br style=&quot;border-color: var(--border-color); font-weight: 400;&quot;&gt;&lt;br&gt;&lt;/font&gt;&lt;/p&gt;" style="text;strokeColor=none;fillColor=none;html=1;fontSize=24;fontStyle=1;verticalAlign=middle;align=center;" vertex="1" parent="1">
          <mxGeometry x="151.88" y="190" width="36.25" height="30" as="geometry" />
        </mxCell>
        <mxCell id="yrGtAyt5l6_F0EDYC7tG-18" value="" style="shape=cube;whiteSpace=wrap;html=1;boundedLbl=1;backgroundOutline=1;darkOpacity=0.05;darkOpacity2=0.1;size=10;rotation=0;" vertex="1" parent="1">
          <mxGeometry x="110" y="210" width="120" height="50" as="geometry" />
        </mxCell>
        <mxCell id="yrGtAyt5l6_F0EDYC7tG-20" value="&lt;p style=&quot;line-height: 110%; font-size: 8px;&quot;&gt;&lt;font style=&quot;font-size: 8px;&quot;&gt;&amp;lt;&amp;lt;web browser&amp;gt;&amp;gt;&lt;br style=&quot;border-color: var(--border-color); font-weight: 400;&quot;&gt;&lt;br&gt;&lt;/font&gt;&lt;/p&gt;" style="text;strokeColor=none;fillColor=none;html=1;fontSize=24;fontStyle=1;verticalAlign=middle;align=center;" vertex="1" parent="1">
          <mxGeometry x="151.88" y="220" width="36.25" height="30" as="geometry" />
        </mxCell>
        <mxCell id="yrGtAyt5l6_F0EDYC7tG-22" value="" style="shape=cube;whiteSpace=wrap;html=1;boundedLbl=1;backgroundOutline=1;darkOpacity=0.05;darkOpacity2=0.1;size=10;rotation=0;" vertex="1" parent="1">
          <mxGeometry x="266" y="340" width="120" height="50" as="geometry" />
        </mxCell>
        <mxCell id="yrGtAyt5l6_F0EDYC7tG-23" value="&lt;p style=&quot;line-height: 110%;&quot;&gt;&lt;font style=&quot;font-size: 8px;&quot;&gt;&amp;lt;&amp;lt;&lt;/font&gt;&lt;font style=&quot;font-size: 11px;&quot;&gt;LoadBalancer&lt;/font&gt;&lt;font style=&quot;font-size: 8px;&quot;&gt;&amp;gt;&amp;gt;&lt;/font&gt;&lt;/p&gt;" style="text;strokeColor=none;fillColor=none;html=1;fontSize=24;fontStyle=1;verticalAlign=middle;align=center;" vertex="1" parent="1">
          <mxGeometry x="307.88" y="350" width="36.25" height="30" as="geometry" />
        </mxCell>
        <mxCell id="yrGtAyt5l6_F0EDYC7tG-24" value="" style="shape=cube;whiteSpace=wrap;html=1;boundedLbl=1;backgroundOutline=1;darkOpacity=0.05;darkOpacity2=0.1;size=10;rotation=0;fillColor=#d5e8d4;strokeColor=#82b366;" vertex="1" parent="1">
          <mxGeometry x="243" y="440" width="170" height="160" as="geometry" />
        </mxCell>
        <mxCell id="yrGtAyt5l6_F0EDYC7tG-25" value="&lt;p style=&quot;line-height: 110%; font-size: 11px;&quot;&gt;&lt;font style=&quot;font-size: 11px;&quot;&gt;&amp;lt;&amp;lt;device&amp;gt;&amp;gt;&lt;br style=&quot;border-color: var(--border-color); font-weight: 400;&quot;&gt;&lt;span style=&quot;font-weight: 400;&quot;&gt;Server&lt;/span&gt;&lt;/font&gt;&lt;/p&gt;" style="text;strokeColor=none;fillColor=none;html=1;fontSize=24;fontStyle=1;verticalAlign=middle;align=center;" vertex="1" parent="1">
          <mxGeometry x="291.75" y="440" width="72.5" height="60" as="geometry" />
        </mxCell>
        <mxCell id="yrGtAyt5l6_F0EDYC7tG-26" value="" style="shape=cube;whiteSpace=wrap;html=1;boundedLbl=1;backgroundOutline=1;darkOpacity=0.05;darkOpacity2=0.1;size=10;rotation=0;" vertex="1" parent="1">
          <mxGeometry x="263" y="490" width="140" height="100" as="geometry" />
        </mxCell>
        <mxCell id="yrGtAyt5l6_F0EDYC7tG-27" value="&lt;p style=&quot;line-height: 110%; font-size: 9px;&quot;&gt;&lt;font style=&quot;font-size: 9px;&quot;&gt;&amp;lt;&amp;lt;JSP server&amp;gt;&amp;gt;: Tomcat 7&lt;/font&gt;&lt;/p&gt;" style="text;strokeColor=none;fillColor=none;html=1;fontSize=24;fontStyle=1;verticalAlign=middle;align=center;" vertex="1" parent="1">
          <mxGeometry x="321.12" y="500" width="36.25" height="30" as="geometry" />
        </mxCell>
        <mxCell id="yrGtAyt5l6_F0EDYC7tG-28" value="" style="shape=cube;whiteSpace=wrap;html=1;boundedLbl=1;backgroundOutline=1;darkOpacity=0.05;darkOpacity2=0.1;size=10;rotation=0;" vertex="1" parent="1">
          <mxGeometry x="276.43" y="520" width="122" height="70" as="geometry" />
        </mxCell>
        <mxCell id="yrGtAyt5l6_F0EDYC7tG-30" value="&lt;p style=&quot;line-height: 110%; font-size: 8px;&quot;&gt;&lt;font style=&quot;font-size: 8px;&quot;&gt;&amp;lt;&amp;lt;execution environement&amp;gt;&amp;gt;&lt;br style=&quot;border-color: var(--border-color); font-weight: 400;&quot;&gt;&lt;span style=&quot;font-weight: 400;&quot;&gt;:Catalina Servlet Container&lt;/span&gt;&lt;/font&gt;&lt;/p&gt;" style="text;strokeColor=none;fillColor=none;html=1;fontSize=24;fontStyle=1;verticalAlign=middle;align=center;" vertex="1" parent="1">
          <mxGeometry x="307.43" y="510" width="72.5" height="60" as="geometry" />
        </mxCell>
        <mxCell id="yrGtAyt5l6_F0EDYC7tG-31" value="" style="verticalLabelPosition=bottom;verticalAlign=top;html=1;shape=mxgraph.basic.rect;fillColor2=none;strokeWidth=1;size=20;indent=5;" vertex="1" parent="1">
          <mxGeometry x="321.12" y="560" width="45.12" height="20" as="geometry" />
        </mxCell>
        <mxCell id="yrGtAyt5l6_F0EDYC7tG-33" value="" style="shape=cube;whiteSpace=wrap;html=1;boundedLbl=1;backgroundOutline=1;darkOpacity=0.05;darkOpacity2=0.1;size=10;rotation=0;fillColor=#dae8fc;strokeColor=#6c8ebf;" vertex="1" parent="1">
          <mxGeometry x="266" y="710" width="170" height="160" as="geometry" />
        </mxCell>
        <mxCell id="yrGtAyt5l6_F0EDYC7tG-34" value="&lt;p style=&quot;line-height: 110%; font-size: 11px;&quot;&gt;&lt;font style=&quot;font-size: 11px;&quot;&gt;&amp;lt;&amp;lt;device&amp;gt;&amp;gt;&lt;br style=&quot;border-color: var(--border-color); font-weight: 400;&quot;&gt;&lt;span style=&quot;font-weight: 400;&quot;&gt;Database&lt;/span&gt;&lt;/font&gt;&lt;/p&gt;" style="text;strokeColor=none;fillColor=none;html=1;fontSize=24;fontStyle=1;verticalAlign=middle;align=center;" vertex="1" parent="1">
          <mxGeometry x="314.75" y="710" width="72.5" height="60" as="geometry" />
        </mxCell>
        <mxCell id="yrGtAyt5l6_F0EDYC7tG-35" value="" style="shape=cube;whiteSpace=wrap;html=1;boundedLbl=1;backgroundOutline=1;darkOpacity=0.05;darkOpacity2=0.1;size=10;rotation=0;" vertex="1" parent="1">
          <mxGeometry x="286" y="760" width="140" height="100" as="geometry" />
        </mxCell>
        <mxCell id="yrGtAyt5l6_F0EDYC7tG-36" value="&lt;p style=&quot;line-height: 110%; font-size: 9px;&quot;&gt;&lt;font style=&quot;font-size: 9px;&quot;&gt;&amp;lt;&amp;lt;database system&amp;gt;&amp;gt;&lt;br style=&quot;border-color: var(--border-color); font-weight: 400;&quot;&gt;&amp;nbsp;:MySQL 8.0.26&lt;/font&gt;&lt;/p&gt;&lt;p style=&quot;line-height: 110%; font-size: 9px;&quot;&gt;&lt;font style=&quot;font-size: 9px;&quot;&gt;&lt;br&gt;&lt;/font&gt;&lt;/p&gt;&lt;p style=&quot;line-height: 110%; font-size: 9px;&quot;&gt;&lt;font style=&quot;font-size: 9px;&quot;&gt;Model&lt;/font&gt;&lt;/p&gt;" style="text;strokeColor=none;fillColor=none;html=1;fontSize=24;fontStyle=1;verticalAlign=middle;align=center;" vertex="1" parent="1">
          <mxGeometry x="343.68" y="795" width="36.25" height="30" as="geometry" />
        </mxCell>
        <mxCell id="yrGtAyt5l6_F0EDYC7tG-41" value="" style="shape=cube;whiteSpace=wrap;html=1;boundedLbl=1;backgroundOutline=1;darkOpacity=0.05;darkOpacity2=0.1;size=10;rotation=0;" vertex="1" parent="1">
          <mxGeometry x="510" y="470" width="150" height="180" as="geometry" />
        </mxCell>
        <mxCell id="yrGtAyt5l6_F0EDYC7tG-42" value="&lt;p style=&quot;line-height: 110%; font-size: 11px;&quot;&gt;&lt;font style=&quot;font-size: 11px;&quot;&gt;&amp;lt;&amp;lt;device&amp;gt;&amp;gt;&lt;br style=&quot;border-color: var(--border-color); font-weight: 400;&quot;&gt;&lt;span style=&quot;font-weight: 400;&quot;&gt;External server&lt;/span&gt;&lt;/font&gt;&lt;/p&gt;" style="text;strokeColor=none;fillColor=none;html=1;fontSize=24;fontStyle=1;verticalAlign=middle;align=center;" vertex="1" parent="1">
          <mxGeometry x="558.75" y="470" width="72.5" height="60" as="geometry" />
        </mxCell>
        <mxCell id="yrGtAyt5l6_F0EDYC7tG-43" value="&amp;lt;&amp;lt;external database system&amp;gt;&amp;gt;" style="shape=cube;whiteSpace=wrap;html=1;boundedLbl=1;backgroundOutline=1;darkOpacity=0.05;darkOpacity2=0.1;size=10;rotation=0;" vertex="1" parent="1">
          <mxGeometry x="535" y="550" width="115" height="80" as="geometry" />
        </mxCell>
        <mxCell id="yrGtAyt5l6_F0EDYC7tG-45" value="API" style="text;html=1;strokeColor=none;fillColor=none;align=center;verticalAlign=middle;whiteSpace=wrap;rounded=0;" vertex="1" parent="1">
          <mxGeometry x="313.68" y="555" width="60" height="30" as="geometry" />
        </mxCell>
        <mxCell id="yrGtAyt5l6_F0EDYC7tG-46" value="" style="verticalLabelPosition=bottom;verticalAlign=top;html=1;shape=mxgraph.basic.rect;fillColor2=none;strokeWidth=1;size=20;indent=5;" vertex="1" parent="1">
          <mxGeometry x="572.4399999999999" y="520" width="45.12" height="20" as="geometry" />
        </mxCell>
        <mxCell id="yrGtAyt5l6_F0EDYC7tG-32" value="API" style="text;html=1;strokeColor=none;fillColor=none;align=center;verticalAlign=middle;whiteSpace=wrap;rounded=0;" vertex="1" parent="1">
          <mxGeometry x="565" y="515" width="60" height="30" as="geometry" />
        </mxCell>
        <mxCell id="yrGtAyt5l6_F0EDYC7tG-47" value="" style="endArrow=none;html=1;rounded=0;exitX=0;exitY=0;exitDx=90;exitDy=160;exitPerimeter=0;entryX=0.373;entryY=-0.035;entryDx=0;entryDy=0;entryPerimeter=0;edgeStyle=orthogonalEdgeStyle;" edge="1" parent="1" source="yrGtAyt5l6_F0EDYC7tG-12" target="yrGtAyt5l6_F0EDYC7tG-22">
          <mxGeometry width="50" height="50" relative="1" as="geometry">
            <mxPoint x="330" y="530" as="sourcePoint" />
            <mxPoint x="380" y="480" as="targetPoint" />
          </mxGeometry>
        </mxCell>
        <mxCell id="yrGtAyt5l6_F0EDYC7tG-48" value="1" style="edgeLabel;html=1;align=center;verticalAlign=middle;resizable=0;points=[];" vertex="1" connectable="0" parent="yrGtAyt5l6_F0EDYC7tG-47">
          <mxGeometry x="-0.893" y="-2" relative="1" as="geometry">
            <mxPoint as="offset" />
          </mxGeometry>
        </mxCell>
        <mxCell id="yrGtAyt5l6_F0EDYC7tG-49" value="0..*" style="edgeLabel;html=1;align=center;verticalAlign=middle;resizable=0;points=[];" vertex="1" connectable="0" parent="yrGtAyt5l6_F0EDYC7tG-47">
          <mxGeometry x="0.8682" y="-2" relative="1" as="geometry">
            <mxPoint as="offset" />
          </mxGeometry>
        </mxCell>
        <mxCell id="yrGtAyt5l6_F0EDYC7tG-52" value="" style="endArrow=none;html=1;rounded=0;entryX=0.5;entryY=0;entryDx=0;entryDy=0;" edge="1" parent="1" target="yrGtAyt5l6_F0EDYC7tG-25">
          <mxGeometry width="50" height="50" relative="1" as="geometry">
            <mxPoint x="328" y="390" as="sourcePoint" />
            <mxPoint x="370" y="460" as="targetPoint" />
          </mxGeometry>
        </mxCell>
        <mxCell id="yrGtAyt5l6_F0EDYC7tG-53" value="3" style="edgeLabel;html=1;align=center;verticalAlign=middle;resizable=0;points=[];" vertex="1" connectable="0" parent="yrGtAyt5l6_F0EDYC7tG-52">
          <mxGeometry x="-0.5578" relative="1" as="geometry">
            <mxPoint as="offset" />
          </mxGeometry>
        </mxCell>
        <mxCell id="yrGtAyt5l6_F0EDYC7tG-54" value="1" style="edgeLabel;html=1;align=center;verticalAlign=middle;resizable=0;points=[];" vertex="1" connectable="0" parent="yrGtAyt5l6_F0EDYC7tG-52">
          <mxGeometry x="0.6001" relative="1" as="geometry">
            <mxPoint as="offset" />
          </mxGeometry>
        </mxCell>
        <mxCell id="yrGtAyt5l6_F0EDYC7tG-55" value="" style="endArrow=none;html=1;rounded=0;entryX=0;entryY=0;entryDx=170;entryDy=85;entryPerimeter=0;exitX=-0.013;exitY=0.63;exitDx=0;exitDy=0;exitPerimeter=0;edgeStyle=orthogonalEdgeStyle;" edge="1" parent="1" source="yrGtAyt5l6_F0EDYC7tG-41" target="yrGtAyt5l6_F0EDYC7tG-24">
          <mxGeometry width="50" height="50" relative="1" as="geometry">
            <mxPoint x="310" y="590" as="sourcePoint" />
            <mxPoint x="360" y="540" as="targetPoint" />
          </mxGeometry>
        </mxCell>
        <mxCell id="yrGtAyt5l6_F0EDYC7tG-56" value="4" style="edgeLabel;html=1;align=center;verticalAlign=middle;resizable=0;points=[];" vertex="1" connectable="0" parent="yrGtAyt5l6_F0EDYC7tG-55">
          <mxGeometry x="0.6995" y="2" relative="1" as="geometry">
            <mxPoint as="offset" />
          </mxGeometry>
        </mxCell>
        <mxCell id="yrGtAyt5l6_F0EDYC7tG-57" value="3" style="edgeLabel;html=1;align=center;verticalAlign=middle;resizable=0;points=[];" vertex="1" connectable="0" parent="yrGtAyt5l6_F0EDYC7tG-55">
          <mxGeometry x="-0.746" y="-2" relative="1" as="geometry">
            <mxPoint as="offset" />
          </mxGeometry>
        </mxCell>
        <mxCell id="yrGtAyt5l6_F0EDYC7tG-58" value="" style="endArrow=none;html=1;rounded=0;exitX=0.491;exitY=1.017;exitDx=0;exitDy=0;exitPerimeter=0;entryX=0.75;entryY=0;entryDx=0;entryDy=0;edgeStyle=orthogonalEdgeStyle;" edge="1" parent="1" source="yrGtAyt5l6_F0EDYC7tG-24" target="yrGtAyt5l6_F0EDYC7tG-34">
          <mxGeometry width="50" height="50" relative="1" as="geometry">
            <mxPoint x="310" y="590" as="sourcePoint" />
            <mxPoint x="360" y="540" as="targetPoint" />
          </mxGeometry>
        </mxCell>
        <mxCell id="yrGtAyt5l6_F0EDYC7tG-59" value="2" style="edgeLabel;html=1;align=center;verticalAlign=middle;resizable=0;points=[];" vertex="1" connectable="0" parent="yrGtAyt5l6_F0EDYC7tG-58">
          <mxGeometry x="-0.8066" y="-1" relative="1" as="geometry">
            <mxPoint as="offset" />
          </mxGeometry>
        </mxCell>
        <mxCell id="yrGtAyt5l6_F0EDYC7tG-60" value="3" style="edgeLabel;html=1;align=center;verticalAlign=middle;resizable=0;points=[];" vertex="1" connectable="0" parent="yrGtAyt5l6_F0EDYC7tG-58">
          <mxGeometry x="0.7516" y="3" relative="1" as="geometry">
            <mxPoint as="offset" />
          </mxGeometry>
        </mxCell>
        <mxCell id="yrGtAyt5l6_F0EDYC7tG-62" value="&amp;lt;&amp;lt;protocol&amp;gt;&amp;gt; HTTP" style="text;html=1;strokeColor=none;fillColor=none;align=center;verticalAlign=middle;whiteSpace=wrap;rounded=0;" vertex="1" parent="1">
          <mxGeometry x="95" y="290" width="60" height="30" as="geometry" />
        </mxCell>
        <mxCell id="yrGtAyt5l6_F0EDYC7tG-63" value="&amp;lt;&amp;lt;protocol&amp;gt;&amp;gt; HTTP" style="text;html=1;strokeColor=none;fillColor=none;align=center;verticalAlign=middle;whiteSpace=wrap;rounded=0;" vertex="1" parent="1">
          <mxGeometry x="254.75" y="400" width="60" height="30" as="geometry" />
        </mxCell>
        <mxCell id="yrGtAyt5l6_F0EDYC7tG-64" value="&amp;lt;&amp;lt;protocol&amp;gt;&amp;gt; TCP/IP" style="text;html=1;strokeColor=none;fillColor=none;align=center;verticalAlign=middle;whiteSpace=wrap;rounded=0;" vertex="1" parent="1">
          <mxGeometry x="254.75" y="620" width="60" height="30" as="geometry" />
        </mxCell>
        <mxCell id="yrGtAyt5l6_F0EDYC7tG-66" value="&amp;lt;&amp;lt;protocol&amp;gt;&amp;gt; TCP/IP" style="text;html=1;strokeColor=none;fillColor=none;align=center;verticalAlign=middle;whiteSpace=wrap;rounded=0;" vertex="1" parent="1">
          <mxGeometry x="450" y="490" width="60" height="30" as="geometry" />
        </mxCell>
      </root>
    </mxGraphModel>
  </diagram>
</mxfile>
